# xmcd
#
# Track frame offsets: 
#        150
#        73732
#        146680
#        196653
#
# Disc length: 3360 seconds
#
# Revision: 0
# Processed by: cddbd v1.5.2PL0 Copyright (c) Steve Scherf et al.
# Submitted via: ExactAudioCopy v0.95b3
#
DISCID=360d1e04
DTITLE=The Beatles  - Kum Back jan 6-8 - Disc 7  FLAC
DYEAR=1900
DGENRE=
TTITLE0=Nagra Roll 077B
TTITLE1=Nagra Roll 078B
TTITLE2=Nagra Roll 079B
TTITLE3=Nagra Roll 080B  i me mine
EXTD=
EXTT0=
EXTT1=
EXTT2=
EXTT3=
PLAYORDER=
